<svg width="33" height="27" viewBox="0 0 33 27" fill="none" xmlns="http://www.w3.org/2000/svg">
<path d="M2.53846 25.0714H8.25V20.7321H2.53846V25.0714ZM9.51923 25.0714H15.8654V20.7321H9.51923V25.0714ZM2.53846 19.7679H8.25V14.9464H2.53846V19.7679ZM9.51923 19.7679H15.8654V14.9464H9.51923V19.7679ZM2.53846 13.9821H8.25V9.64286H2.53846V13.9821ZM17.1346 25.0714H23.4808V20.7321H17.1346V25.0714ZM9.51923 13.9821H15.8654V9.64286H9.51923V13.9821ZM24.75 25.0714H30.4615V20.7321H24.75V25.0714ZM17.1346 19.7679H23.4808V14.9464H17.1346V19.7679ZM10.1538 6.75V2.41071C10.1538 2.28013 10.091 2.16713 9.96544 2.07171C9.83984 1.97628 9.69111 1.92857 9.51923 1.92857H8.25C8.07812 1.92857 7.92939 1.97628 7.80379 2.07171C7.67818 2.16713 7.61538 2.28013 7.61538 2.41071V6.75C7.61538 6.88058 7.67818 6.99358 7.80379 7.08901C7.92939 7.18443 8.07812 7.23214 8.25 7.23214H9.51923C9.69111 7.23214 9.83984 7.18443 9.96544 7.08901C10.091 6.99358 10.1538 6.88058 10.1538 6.75ZM24.75 19.7679H30.4615V14.9464H24.75V19.7679ZM17.1346 13.9821H23.4808V9.64286H17.1346V13.9821ZM24.75 13.9821H30.4615V9.64286H24.75V13.9821ZM25.3846 6.75V2.41071C25.3846 2.28013 25.3218 2.16713 25.1962 2.07171C25.0706 1.97628 24.9219 1.92857 24.75 1.92857H23.4808C23.3089 1.92857 23.1602 1.97628 23.0346 2.07171C22.909 2.16713 22.8462 2.28013 22.8462 2.41071V6.75C22.8462 6.88058 22.909 6.99358 23.0346 7.08901C23.1602 7.18443 23.3089 7.23214 23.4808 7.23214H24.75C24.9219 7.23214 25.0706 7.18443 25.1962 7.08901C25.3218 6.99358 25.3846 6.88058 25.3846 6.75ZM33 5.78571V25.0714C33 25.5938 32.7488 26.0458 32.2464 26.4275C31.744 26.8092 31.149 27 30.4615 27H2.53846C1.85096 27 1.25601 26.8092 0.753606 26.4275C0.251202 26.0458 0 25.5938 0 25.0714V5.78571C0 5.26339 0.251202 4.81138 0.753606 4.42969C1.25601 4.04799 1.85096 3.85714 2.53846 3.85714H5.07692V2.41071C5.07692 1.74777 5.38762 1.18025 6.00901 0.708147C6.63041 0.236049 7.3774 0 8.25 0H9.51923C10.3918 0 11.1388 0.236049 11.7602 0.708147C12.3816 1.18025 12.6923 1.74777 12.6923 2.41071V3.85714H20.3077V2.41071C20.3077 1.74777 20.6184 1.18025 21.2398 0.708147C21.8612 0.236049 22.6082 0 23.4808 0H24.75C25.6226 0 26.3696 0.236049 26.991 0.708147C27.6124 1.18025 27.9231 1.74777 27.9231 2.41071V3.85714H30.4615C31.149 3.85714 31.744 4.04799 32.2464 4.42969C32.7488 4.81138 33 5.26339 33 5.78571Z" fill="black"/>
</svg>
