<svg width="59" height="53" viewBox="0 0 59 53" fill="none" xmlns="http://www.w3.org/2000/svg">
<path d="M29.5 0C13.2339 0 0 11.8881 0 26.5C0 41.1119 13.2339 53 29.5 53C45.7661 53 59 41.1119 59 26.5C59 11.8881 45.7661 0 29.5 0ZM44.8528 17.6187L25.7912 38.0033C25.5821 38.227 25.322 38.4078 25.0283 38.5333C24.7347 38.6588 24.4144 38.7261 24.0893 38.7308H24.051C23.7329 38.7307 23.4185 38.6705 23.1279 38.5542C22.8374 38.4378 22.5774 38.268 22.3647 38.0555L14.1955 29.9017C13.988 29.704 13.8266 29.4711 13.7208 29.2166C13.6149 28.9621 13.5668 28.6911 13.5792 28.4197C13.5916 28.1482 13.6643 27.8818 13.793 27.6359C13.9217 27.3901 14.1038 27.1698 14.3286 26.9881C14.5534 26.8063 14.8164 26.6668 15.1021 26.5777C15.3878 26.4885 15.6904 26.4516 15.9922 26.469C16.294 26.4865 16.5889 26.5579 16.8595 26.6792C17.1302 26.8005 17.3711 26.9691 17.5681 27.1752L23.9914 33.5862L41.378 14.9967C41.768 14.5917 42.3198 14.3408 42.9141 14.2982C43.5083 14.2557 44.0974 14.4249 44.5539 14.7694C45.0103 15.1138 45.2976 15.6058 45.3535 16.139C45.4095 16.6722 45.2296 17.2037 44.8528 17.6187Z" fill="#415998"/>
</svg>
