<svg width="35" height="31" viewBox="0 0 35 31" fill="none" xmlns="http://www.w3.org/2000/svg">
<path d="M17.5 25.1875C20.4008 25.1875 23.1828 24.1669 25.234 22.3501C27.2852 20.5333 28.4375 18.0693 28.4375 15.5C28.4375 12.9307 27.2852 10.4667 25.234 8.6499C23.1828 6.83314 20.4008 5.8125 17.5 5.8125C14.5992 5.8125 11.8172 6.83314 9.76602 8.6499C7.71484 10.4667 6.5625 12.9307 6.5625 15.5C6.5625 18.0693 7.71484 20.5333 9.76602 22.3501C11.8172 24.1669 14.5992 25.1875 17.5 25.1875ZM17.5 27.125C15.7764 27.125 14.0697 26.8243 12.4773 26.2401C10.8849 25.6559 9.43799 24.7996 8.21922 23.7201C7.00045 22.6406 6.03367 21.3591 5.37408 19.9487C4.71449 18.5383 4.375 17.0266 4.375 15.5C4.375 13.9734 4.71449 12.4617 5.37408 11.0513C6.03367 9.64089 7.00045 8.35936 8.21922 7.27988C9.43799 6.2004 10.8849 5.34411 12.4773 4.7599C14.0697 4.17569 15.7764 3.875 17.5 3.875C20.981 3.875 24.3194 5.09977 26.7808 7.27988C29.2422 9.45999 30.625 12.4169 30.625 15.5C30.625 18.5831 29.2422 21.54 26.7808 23.7201C24.3194 25.9002 20.981 27.125 17.5 27.125Z" fill="black"/>
<path d="M9.99028 24.9627L11.8847 25.9315L10.244 28.4483C10.1727 28.5594 10.0773 28.6568 9.96335 28.7351C9.84935 28.8134 9.719 28.8709 9.57979 28.9044C9.44059 28.9379 9.29528 28.9466 9.15224 28.9302C9.0092 28.9137 8.87125 28.8723 8.74633 28.8085C8.62141 28.7446 8.51199 28.6594 8.42438 28.5579C8.33676 28.4565 8.27267 28.3406 8.2358 28.2171C8.19893 28.0936 8.19001 27.9648 8.20955 27.8383C8.22909 27.7117 8.27671 27.5898 8.34966 27.4796L9.99028 24.9627ZM25.0097 24.9627L23.1153 25.9315L24.7559 28.4483C24.8272 28.5594 24.9226 28.6568 25.0366 28.7351C25.1506 28.8134 25.2809 28.8709 25.4202 28.9044C25.5594 28.9379 25.7047 28.9466 25.8477 28.9302C25.9907 28.9137 26.1287 28.8723 26.2536 28.8085C26.3785 28.7446 26.4879 28.6594 26.5756 28.5579C26.6632 28.4565 26.7273 28.3406 26.7641 28.2171C26.801 28.0936 26.8099 27.9648 26.7904 27.8383C26.7708 27.7117 26.7232 27.5898 26.6503 27.4796L25.0097 24.9627ZM17.5 15.5H22.9687C23.2588 15.5 23.537 15.6021 23.7421 15.7837C23.9472 15.9654 24.0625 16.2118 24.0625 16.4687C24.0625 16.7257 23.9472 16.9721 23.7421 17.1538C23.537 17.3354 23.2588 17.4375 22.9687 17.4375H16.4062C16.1161 17.4375 15.8379 17.3354 15.6328 17.1538C15.4277 16.9721 15.3125 16.7257 15.3125 16.4687V9.6875C15.3125 9.43057 15.4277 9.18416 15.6328 9.00249C15.8379 8.82081 16.1161 8.71875 16.4062 8.71875C16.6963 8.71875 16.9745 8.82081 17.1796 9.00249C17.3847 9.18416 17.5 9.43057 17.5 9.6875V15.5ZM3.0931 9.45306C2.39508 8.52142 2.08245 7.40458 2.20827 6.29203C2.33408 5.17948 2.89058 4.13975 3.78336 3.34924C4.67613 2.55872 5.85018 2.06612 7.10632 1.95501C8.36246 1.84389 9.62332 2.12111 10.675 2.73962L9.07372 4.15787C8.46142 3.89887 7.77353 3.81436 7.10475 3.91599C6.43598 4.01762 5.81923 4.30039 5.33942 4.72535C4.85962 5.15032 4.54037 5.69659 4.42562 6.28893C4.31088 6.88127 4.40629 7.49055 4.69872 8.03287L3.09528 9.45306H3.0931ZM31.6422 9.45306C32.3392 8.52156 32.6512 7.40524 32.5252 6.2933C32.3991 5.18137 31.8429 4.14223 30.9507 3.35203C30.0586 2.56182 28.8853 2.06916 27.6299 1.95754C26.3745 1.84593 25.1142 2.12224 24.0625 2.73962L25.6637 4.15787C26.276 3.89887 26.9639 3.81436 27.6327 3.91599C28.3015 4.01762 28.9182 4.30039 29.398 4.72535C29.8778 5.15032 30.1971 5.69659 30.3118 6.28893C30.4266 6.88127 30.3312 7.49055 30.0387 8.03287L31.6422 9.45306Z" fill="black"/>
</svg>
