<svg width="37" height="38" viewBox="0 0 37 38" fill="none" xmlns="http://www.w3.org/2000/svg">
<path d="M4.625 15.8333H21.5833V19H4.625V15.8333ZM4.625 12.6667H21.5833V9.5H4.625V12.6667ZM4.625 25.3333H15.4167V22.1667H4.625V25.3333ZM27.7654 20.3775L28.86 19.2533C29.0026 19.1066 29.172 18.9901 29.3585 18.9106C29.545 18.8312 29.745 18.7903 29.9469 18.7903C30.1488 18.7903 30.3487 18.8312 30.5352 18.9106C30.7217 18.9901 30.8911 19.1066 31.0337 19.2533L32.1283 20.3775C32.7296 20.995 32.7296 21.9925 32.1283 22.61L31.0337 23.7342L27.7654 20.3775ZM26.6708 21.5017L18.5 29.8933V33.25H21.7683L29.9392 24.8583L26.6708 21.5017Z" fill="black"/>
</svg>
