<svg width="201" height="180" viewBox="0 0 201 180" fill="none" xmlns="http://www.w3.org/2000/svg">
<path d="M159.17 117.934H114.457C113.499 117.934 112.723 118.63 112.723 119.488V147.713C112.723 148.571 113.499 149.267 114.457 149.267H159.17C160.128 149.267 160.904 148.571 160.904 147.713V119.488C160.904 118.63 160.128 117.934 159.17 117.934Z" fill="#6385DD"/>
<path d="M156.914 119.401H116.714C115.757 119.401 114.98 120.097 114.98 120.955V146.246C114.98 147.104 115.757 147.8 116.714 147.8H156.914C157.872 147.8 158.649 147.104 158.649 146.246V120.955C158.649 120.097 157.872 119.401 156.914 119.401Z" fill="#6385DD"/>
<path d="M180.548 149.267H164.418C163.957 149.267 163.5 149.185 163.074 149.027C162.648 148.869 162.261 148.637 161.935 148.345C161.608 148.053 161.35 147.706 161.173 147.324C160.997 146.943 160.907 146.534 160.907 146.12V123.597C160.907 123.395 160.952 123.194 161.039 123.007C161.127 122.821 161.255 122.652 161.417 122.51C161.578 122.368 161.77 122.257 161.98 122.182C162.191 122.108 162.415 122.072 162.641 122.076L171.614 122.148C171.855 122.153 172.092 122.203 172.31 122.297C172.528 122.39 172.721 122.523 172.876 122.688L183.746 134.208C185.467 135.794 186.429 137.919 186.428 140.13V144C186.428 144.692 186.277 145.377 185.981 146.016C185.686 146.655 185.253 147.236 184.707 147.725C184.161 148.214 183.513 148.602 182.799 148.866C182.086 149.131 181.321 149.267 180.548 149.267Z" fill="#6385DD"/>
<path d="M136.813 142.686C142.416 142.686 146.957 138.619 146.957 133.601C146.957 128.584 142.416 124.517 136.813 124.517C131.21 124.517 126.668 128.584 126.668 133.601C126.668 138.619 131.21 142.686 136.813 142.686Z" fill="#D7E8F0"/>
<path d="M164.418 133.544V125.888C164.418 125.662 164.519 125.444 164.698 125.284C164.877 125.123 165.12 125.033 165.373 125.033H170.171C170.317 125.034 170.461 125.064 170.593 125.122C170.724 125.18 170.839 125.264 170.928 125.368L177.503 133.02C177.612 133.147 177.679 133.298 177.697 133.457C177.715 133.616 177.682 133.777 177.603 133.92C177.524 134.063 177.402 134.184 177.251 134.268C177.099 134.353 176.924 134.397 176.745 134.397H165.379C165.253 134.398 165.128 134.376 165.012 134.334C164.896 134.291 164.79 134.228 164.7 134.149C164.611 134.07 164.54 133.976 164.492 133.872C164.443 133.768 164.418 133.656 164.418 133.544Z" fill="white"/>
<path d="M116.823 149.2V149.261C116.823 151.125 117.65 152.913 119.122 154.23C120.593 155.548 122.589 156.289 124.67 156.289C126.752 156.289 128.748 155.548 130.219 154.23C131.691 152.913 132.517 151.125 132.517 149.261" stroke="#CCDDE2" stroke-width="4.57" stroke-miterlimit="10"/>
<path d="M164.418 149.261C164.418 151.125 165.245 152.912 166.716 154.23C168.188 155.548 170.183 156.288 172.264 156.288C174.345 156.288 176.341 155.548 177.812 154.23C179.283 152.912 180.11 151.125 180.11 149.261" fill="#6385DD"/>
<path d="M164.438 84.1626C170.963 82.9134 177.988 85.1688 182.766 89.3376C187.543 93.5064 190.203 99.3852 190.888 105.327C191.992 114.782 189.033 125.705 183.212 133.646" stroke="#CCDDE2" stroke-width="4.57" stroke-miterlimit="10"/>
<path d="M105.999 46.1502C116.93 42.6222 130.033 45.7506 140.284 70.0902C143.632 78.0444 147.886 81.7902 153.877 82.2582" stroke="#CCDDE2" stroke-width="4.57" stroke-miterlimit="10"/>
<path d="M64.2257 57.8484C64.2257 57.8484 76.4264 56.5884 76.5008 69.9966L110.655 61.0902L116.017 59.58C116.017 59.58 108.323 51.2208 99.447 49.7826C99.5426 50.5949 99.7223 51.3976 99.9836 52.1802C100.442 53.6202 98.9224 54.4662 96.8139 55.0026C94.7054 55.539 90.4361 52.3656 89.7025 49.5666C89.7025 49.5666 90.7557 48.7152 86.8322 49.3254C82.9087 49.9356 71.0035 52.4124 64.2257 57.8484Z" fill="#2E2E2E"/>
<path d="M11.2557 122.918C11.5887 123.079 11.9608 123.164 12.3391 123.165C12.68 123.165 13.0165 123.096 13.3237 122.963C13.6308 122.831 13.9009 122.638 14.114 122.4L21.8123 113.949L28.0252 106.967L22.9399 104.413C22.4129 104.146 21.7894 104.078 21.2063 104.223C20.6232 104.368 20.1283 104.715 19.8304 105.187L10.3492 120.096C10.1986 120.334 10.1026 120.596 10.0667 120.868C10.0308 121.14 10.0558 121.415 10.1402 121.678C10.2246 121.941 10.3668 122.186 10.5583 122.399C10.7499 122.612 10.987 122.788 11.2557 122.918Z" fill="#2E2E2E"/>
<path d="M128.439 162.79L134.847 168.435C135.401 168.925 136.148 169.2 136.927 169.2H152.961C153.62 169.204 154.255 168.979 154.734 168.574C155.214 168.169 155.5 167.614 155.534 167.025C155.568 166.435 155.347 165.857 154.917 165.41C154.486 164.963 153.88 164.681 153.224 164.624L144.328 163.8L128.439 162.79Z" fill="#2E2E2E"/>
<path d="M98.9163 49.14V49.5288V49.6278C102.462 50.4239 105.8 51.8299 108.745 53.7678C109.222 54.081 109.688 54.3978 110.152 54.7326C110.164 53.3898 110.036 52.0416 109.549 50.7726C109.156 49.6822 108.418 48.7172 107.425 47.9952C106.55 47.3706 105.515 46.9692 104.474 46.6074C103.433 46.2456 102.412 45.9288 101.459 45.441C100.655 45.0461 99.9525 44.5046 99.3967 43.8516C99.2023 43.6153 99.0813 43.337 99.046 43.0452C99.0106 42.7534 99.0624 42.4584 99.1957 42.1902C99.102 42.1846 99.0094 42.1682 98.9203 42.1416L98.9163 49.14Z" fill="#6385DD"/>
<path d="M98.9163 49.14V49.5288V49.6278C102.462 50.4239 105.8 51.8299 108.745 53.7678C109.222 54.081 109.688 54.3978 110.152 54.7326C110.164 53.3898 110.036 52.0416 109.549 50.7726C109.156 49.6822 108.418 48.7172 107.425 47.9952C106.55 47.3706 105.515 46.9692 104.474 46.6074C103.433 46.2456 102.412 45.9288 101.459 45.441C100.655 45.0461 99.9525 44.5046 99.3967 43.8516C99.2023 43.6153 99.0813 43.337 99.046 43.0452C99.0106 42.7534 99.0624 42.4584 99.1957 42.1902C99.102 42.1846 99.0094 42.1682 98.9203 42.1416L98.9163 49.14Z" fill="#6385DD"/>
<path d="M49.9427 79.47C51.2737 80.3252 52.7545 80.9755 54.3245 81.3942C54.9978 81.5742 53.4059 82.2474 54.0973 82.368C51.3617 76.5864 53.3134 67.698 61.9685 59.5872C63.4418 58.2048 66.8307 56.4534 68.501 55.2366C71.1884 53.28 74.129 53.0262 76.943 51.8526C78.2007 51.3326 79.4921 50.8806 80.8103 50.499C83.1537 49.8017 85.5721 49.3263 88.0262 49.0806C88.5829 49.0194 89.1337 48.9762 89.6904 48.9492C89.5546 48.0922 89.5817 47.2207 89.7708 46.3716C90.2834 44.0424 91.1778 42.705 92.8059 40.869C93.827 39.7134 95.4189 36.9504 93.2944 35.9982C91.9557 35.4006 91.8331 34.1784 92.4622 33.4332C92.9949 32.796 94.0702 32.5062 95.4008 33.2532C96.3194 33.7788 97.4109 33.813 98.4601 33.5556C99.2781 33.129 99.9873 32.5539 100.542 31.8672C102.084 29.8872 102.138 26.8902 99.7284 25.4376C98.4118 24.6438 96.7355 24.4512 95.1617 24.6042C94.4586 24.6771 93.7659 24.8164 93.0954 25.02C93.0926 25.0189 93.0895 25.0184 93.0863 25.0184C93.0833 25.0184 93.0801 25.0189 93.0773 25.02C90.2311 26.3952 88.193 28.9386 87.2141 31.8042C86.6393 33.498 85.99 35.1756 85.2302 36.819C84.6071 38.1672 84.173 39.807 82.7821 40.7268C82.2022 41.1125 81.5431 41.3921 80.8424 41.5494C78.2174 43.0398 74.5752 42.1794 71.705 41.8626C69.4097 41.5816 67.0729 41.7933 64.887 42.48C62.4389 43.587 60.3344 45.36 58.6259 47.6586C55.8119 51.4674 58.7907 56.9592 54.0732 59.9634C52.6522 60.8634 51.006 61.416 49.4502 62.1234C47.2231 63.1386 45.4302 64.5786 44.7689 66.8034C43.4484 71.2602 45.786 76.7682 49.9427 79.47Z" fill="#6385DD"/>
<path d="M108.138 112.072L144.428 163.748L128.951 163.093L123.179 158.377H116.58C116.58 158.377 98.5943 134.757 94.4698 130.754C90.3453 126.751 94.4698 116.604 94.4698 116.604L108.138 112.072Z" fill="white"/>
<path d="M165.315 169.198H53.6772" stroke="black" stroke-width="4.57" stroke-miterlimit="10"/>
<path d="M103.01 30.06C103.297 30.5921 103.542 31.1411 103.744 31.7034C104.037 32.6196 103.72 33.1848 104.166 34.056C104.319 34.3566 104.54 34.866 104.769 35.3826C104.835 35.262 104.897 35.163 104.934 35.0856C106.684 31.5954 104.383 29.9124 103.275 29.3364C103.207 29.5832 103.118 29.8251 103.01 30.06Z" fill="#6385DD"/>
<path d="M103.01 30.06C103.297 30.5921 103.542 31.1411 103.744 31.7034C104.037 32.6196 103.72 33.1848 104.166 34.056C104.319 34.3566 104.54 34.866 104.769 35.3826C104.835 35.262 104.897 35.163 104.934 35.0856C106.684 31.5954 104.383 29.9124 103.275 29.3364C103.207 29.5832 103.118 29.8251 103.01 30.06Z" fill="#6385DD"/>
<path d="M86.4603 123.559C84.589 129.451 81.57 135.425 79.0676 139.201C77.2584 141.926 74.365 143.937 70.9685 144.831C67.5722 145.724 63.9238 145.434 60.7565 144.018L33.2898 131.812V126.288L21.8127 113.956L14.1145 122.4C13.9007 122.637 13.6302 122.828 13.3231 122.959C13.016 123.09 12.6799 123.158 12.3396 123.158C11.9404 123.156 11.5485 123.061 11.2029 122.881C10.8573 122.702 10.5698 122.446 10.3689 122.137C10.168 121.828 10.0605 121.477 10.0571 121.119C10.0538 120.762 10.1546 120.41 10.3497 120.098L19.8309 105.196C20.1289 104.724 20.6238 104.377 21.2067 104.232C21.7898 104.087 22.4133 104.155 22.9403 104.422L28.0256 106.976L57.1706 121.594C57.6554 121.837 58.1975 121.973 58.7527 121.992C59.3077 122.01 59.8598 121.91 60.3635 121.701C60.867 121.491 61.3078 121.177 61.6493 120.785C61.991 120.392 62.2238 119.933 62.3283 119.444L65.7815 103.244" stroke="black" stroke-width="4.57" stroke-miterlimit="10"/>
<path d="M73.8197 114.187L81.2868 119.626C89.1457 125.179 95.9855 131.799 101.558 139.246L116.476 158.429H140.556" stroke="black" stroke-width="4.57" stroke-miterlimit="10"/>
<path d="M123.501 158.432L128.439 162.79L134.847 168.435C135.401 168.925 136.149 169.2 136.927 169.2H152.961C153.62 169.204 154.255 168.979 154.735 168.574C155.214 168.169 155.5 167.614 155.534 167.025C155.568 166.436 155.347 165.857 154.917 165.41C154.487 164.963 153.881 164.682 153.224 164.624L144.328 163.8L101.383 102.645C99.1716 99.4878 97.2018 94.2912 98.9163 90.8874C105.447 77.94 104.882 65.3976 104.882 65.3976" stroke="black" stroke-width="4.57" stroke-miterlimit="10"/>
<path d="M98.9159 41.04V49.086V49.4748V49.5738C99.8385 50.7798 100.305 52.4898 99.4224 53.7714C98.2426 55.4868 95.6356 55.2024 93.9814 54.243C93.4955 53.9606 93.0314 53.649 92.5924 53.3106C91.1225 52.1663 90.1714 50.5796 89.9191 48.8502C89.7835 47.9938 89.81 47.1229 89.9975 46.2744C90.5141 43.947 91.4045 42.6096 93.0387 40.77C94.0597 39.6162 95.6517 36.8514 93.5231 35.8992C91.0327 34.7868 92.7573 31.5306 95.6296 33.1578C97.8566 34.4178 101.057 32.8464 102.379 31.1526C103.921 29.1726 103.977 26.1756 101.565 24.723C100.249 23.9292 98.5722 23.7366 97.0004 23.8896C92.2065 24.3612 88.7976 27.7164 87.4328 31.7052C86.8579 33.399 86.2087 35.0766 85.4509 36.72C84.8258 38.07 84.3916 39.708 83.0027 40.6278C80.3596 42.399 76.5285 41.472 73.5356 41.1444C67.3046 40.4586 62.2796 42.93 58.8466 47.556C56.0326 51.3648 59.0114 56.8566 54.2919 59.8608C52.8728 60.7608 51.2266 61.3134 49.6689 62.0208C47.4398 63.0342 45.6489 64.476 44.9856 66.7008C43.665 71.172 46.0027 76.6818 50.1573 79.3836C52.0608 80.622 54.2879 81.3636 56.6014 81.7668" stroke="black" stroke-width="4.57" stroke-miterlimit="10"/>
<path d="M111.216 55.7676C111.228 55.665 111.234 55.566 111.238 55.4688C111.342 53.703 111.33 51.8688 110.687 50.1786C110.293 49.0891 109.555 48.125 108.563 47.403C107.684 46.7784 106.651 46.3734 105.614 46.0134C104.577 45.6534 103.55 45.3366 102.599 44.847C101.793 44.4548 101.091 43.913 100.539 43.2576C100.343 43.0225 100.221 42.7453 100.184 42.4543C100.147 42.163 100.196 41.8684 100.328 41.5998" stroke="black" stroke-width="4.57" stroke-miterlimit="10"/>
<path d="M33.2914 126.29V109.615" stroke="black" stroke-width="4.57" stroke-miterlimit="10"/>
<path d="M96.9849 39.24C97.7065 40.1634 98.6854 41.1606 99.9195 41.5224C101.517 41.9868 102.593 40.7736 103.166 39.591C103.509 38.8872 103.745 38.1384 104.022 37.4112C104.112 37.1718 104.167 37.0512 104.474 37.0368C104.782 37.0224 105.101 37.08 105.415 37.08C105.439 37.0811 105.462 37.076 105.483 37.0654C105.504 37.0548 105.521 37.039 105.531 37.0201C105.543 37.0012 105.547 36.9797 105.545 36.9585C105.543 36.9373 105.534 36.9169 105.519 36.9C105.097 36.3258 104.468 34.7562 104.149 34.128C103.706 33.2568 104.026 32.688 103.728 31.7772C103.525 31.2152 103.282 30.6657 102.999 30.132" stroke="black" stroke-width="4.57" stroke-miterlimit="10"/>
<path d="M103.469 28.4508C103.469 28.4508 107.824 29.9448 105.575 34.4412C105.437 34.7148 105.095 35.2818 104.934 35.5392" stroke="black" stroke-width="4.57" stroke-miterlimit="10"/>
<path d="M103.227 39.4542C102.879 39.4965 102.525 39.4238 102.232 39.2495C101.939 39.0753 101.727 38.8114 101.635 38.5074" stroke="black" stroke-width="4.57" stroke-miterlimit="10"/>
<path d="M103.965 33.4314C103.062 32.7744 102.073 33.6114 101.47 34.2252" stroke="black" stroke-width="4.57" stroke-miterlimit="10"/>
<path d="M98.9163 49.5738C102.463 50.3701 105.803 51.7763 108.751 53.7138C109.608 54.2682 110.434 54.8586 111.236 55.4724C114.399 57.8772 117.183 60.66 119.889 63.4734" stroke="black" stroke-width="4.57" stroke-miterlimit="10"/>
<path d="M123.947 90.0144C123.93 90.0056 123.915 89.9946 123.902 89.982C120.353 86.8032 116.777 83.6478 113.217 80.4798C110.234 77.8266 106.355 75.1104 104.534 71.6292" stroke="black" stroke-width="4.57" stroke-miterlimit="10"/>
<path d="M82.3252 112.901C82.6146 112.819 82.89 112.736 83.1513 112.649C83.1559 112.651 83.1608 112.651 83.1654 112.649" stroke="black" stroke-width="4.57" stroke-miterlimit="10"/>
<path d="M55.3056 75.5226L76.501 69.9966L115.425 59.8464C117.295 59.3642 119.302 59.5647 121.007 60.4039C122.713 61.243 123.978 62.6526 124.526 64.3248L132.886 90.0414C133.424 91.7158 133.201 93.5129 132.265 95.0405C131.33 96.5684 129.757 97.7024 127.891 98.1954L86.4083 109.01L82.4486 110.039L78.4286 111.092L74.4689 112.127L71.2529 112.961L59.8361 115.938C57.966 116.421 55.9584 116.221 54.2527 115.382C52.547 114.542 51.2821 113.132 50.7348 111.46L42.3752 85.743C41.8359 84.0695 42.0584 82.273 42.9941 80.746C43.9298 79.2191 45.5022 78.086 47.3681 77.5944L47.6675 77.517L47.9188 77.4504L53.2493 76.059L55.3056 75.5226Z" fill="white"/>
<path d="M58.4912 76.194L78.1289 71.0748L114.196 61.6698C115.93 61.2201 117.792 61.4043 119.375 62.1821C120.957 62.9597 122.131 64.2675 122.638 65.8188L130.381 89.64C130.88 91.1914 130.674 92.8564 129.808 94.2725C128.942 95.6884 127.486 96.7406 125.758 97.2L87.3166 107.222L83.6484 108.18L79.9158 109.154L76.2476 110.115L73.2647 110.88L61.058 114.12C59.3242 114.57 57.4617 114.386 55.879 113.608C54.2965 112.831 53.1231 111.523 52.616 109.971L44.8775 86.1372C44.3754 84.5858 44.58 82.9193 45.4463 81.5026C46.3126 80.0858 47.7703 79.034 49.5005 78.5772L49.7779 78.5052L50.011 78.4458L56.5857 76.6818L58.4912 76.194Z" fill="#6385DD"/>
<path d="M60.618 77.04L78.8266 72.2934L113.6 63.1764C115.206 62.7624 116.93 62.9345 118.395 63.6552C119.86 64.3759 120.947 65.5868 121.418 67.023L128.602 89.118C129.065 90.5566 128.873 92.1006 128.069 93.4132C127.265 94.7257 125.914 95.7001 124.311 96.1236L87.3389 105.817L83.938 106.702L80.4788 107.602L77.0759 108.491L74.3201 109.211L61.8963 112.487C60.2887 112.905 58.5619 112.735 57.0944 112.014C55.6271 111.293 54.5391 110.08 54.0694 108.641L46.8836 86.5476C46.4203 85.1096 46.6119 83.5657 47.4159 82.2537C48.2201 80.9417 49.5716 79.9681 51.175 79.5456L52.5378 79.1982L52.7549 79.1406L58.8512 77.5062L60.618 77.04Z" fill="#6385DD"/>
<path d="M87.6822 90.189L54.9574 98.46C54.783 98.5041 54.6004 98.5171 54.4204 98.498C54.2403 98.4789 54.0662 98.4281 53.9082 98.3488C53.75 98.2694 53.6109 98.1628 53.4988 98.0352C53.3868 97.9076 53.3038 97.7614 53.255 97.605C53.219 97.497 53.2007 97.3849 53.2007 97.272C53.2019 97.0031 53.3006 96.7417 53.4819 96.5272C53.663 96.3128 53.917 96.1565 54.2057 96.0822L86.9305 87.8166C86.7986 88.2201 86.7924 88.6484 86.9124 89.055C87.0423 89.4913 87.3096 89.8848 87.6822 90.189Z" fill="#6385DD"/>
<path d="M95.3265 87.3162C95.3261 87.586 95.228 87.8485 95.0467 88.0639C94.8654 88.2794 94.6109 88.4365 94.3215 88.5114L91.9597 89.109C92.0942 88.6894 92.0956 88.2446 91.9639 87.8243C91.8321 87.4042 91.5726 87.025 91.214 86.7294L93.5757 86.1336C93.9277 86.0459 94.3042 86.0866 94.623 86.2468C94.9415 86.4072 95.1763 86.6738 95.2762 86.9886C95.3116 87.0948 95.3285 87.2053 95.3265 87.3162Z" fill="#D7E8F0"/>
<path d="M96.8137 92.0358C96.8127 92.3049 96.7142 92.5662 96.5329 92.7808C96.3518 92.9954 96.0975 93.1514 95.8087 93.2256L63.2869 101.441C63.4818 101.037 63.5451 100.592 63.4694 100.158C63.3936 99.7232 63.1819 99.3168 62.8587 98.9856L95.0569 90.846C95.4091 90.7589 95.7854 90.7999 96.1037 90.9599C96.4223 91.1201 96.6573 91.3865 96.7574 91.701C96.7948 91.8094 96.8139 91.9222 96.8137 92.0358Z" fill="#D7E8F0"/>
<path d="M59.3752 102.42L56.4446 103.16C56.2659 103.223 56.0746 103.252 55.8826 103.245C55.6909 103.238 55.5027 103.195 55.3305 103.118C55.1582 103.042 55.0057 102.935 54.8826 102.803C54.7596 102.671 54.6688 102.517 54.6159 102.352C54.5631 102.186 54.5496 102.013 54.5759 101.843C54.6024 101.672 54.6684 101.509 54.7697 101.363C54.871 101.217 55.0052 101.091 55.1638 100.994C55.3224 100.897 55.5019 100.831 55.6909 100.8L58.3039 100.141C58.2476 100.464 58.2647 100.794 58.3541 101.111C58.5107 101.642 58.8725 102.106 59.3752 102.42Z" fill="#6385DD"/>
<path d="M88.5085 100.219L58.1455 107.892C57.7935 107.978 57.4181 107.936 57.0999 107.776C56.7819 107.616 56.5467 107.351 56.445 107.037C56.4097 106.93 56.3928 106.819 56.3948 106.708C56.3956 106.438 56.4939 106.176 56.675 105.96C56.8563 105.745 57.1105 105.588 57.3998 105.512L87.7186 97.857C87.5918 98.2775 87.5986 98.7214 87.7381 99.1386C87.8778 99.5558 88.1445 99.9299 88.5085 100.219Z" fill="#6385DD"/>
<path d="M98.5202 96.7536C98.5206 97.0229 98.4225 97.285 98.241 97.4997C98.0595 97.7146 97.8046 97.8703 97.5152 97.9434L92.7535 99.144L88.5123 100.224C88.1483 99.9351 87.8814 99.5611 87.7419 99.1438C87.6024 98.7266 87.5956 98.2829 87.7224 97.8624L92.0439 96.7716L96.7674 95.5764C97.119 95.4875 97.4955 95.5271 97.8147 95.6864C98.1336 95.8455 98.3694 96.1115 98.4699 96.426C98.5035 96.5326 98.5206 96.6429 98.5202 96.7536Z" fill="#D7E8F0"/>
<path d="M91.9593 89.109C91.8015 89.6029 91.4667 90.0367 91.0062 90.3432C90.5457 90.6498 89.9855 90.8121 89.4116 90.8053C88.838 90.7983 88.2828 90.6224 87.8318 90.3047C87.3807 89.9872 87.0591 89.5453 86.9162 89.0478C86.8298 88.7501 86.8097 88.4401 86.8569 88.1356C86.9044 87.831 87.0181 87.5378 87.1922 87.2726C87.3663 87.0075 87.5968 86.7757 87.871 86.5904C88.1449 86.405 88.4573 86.27 88.7895 86.193C89.2118 86.0945 89.655 86.0924 90.0783 86.1867C90.5019 86.281 90.8922 86.4688 91.2136 86.733C91.5722 87.0286 91.8319 87.4076 91.9635 87.8279C92.0952 88.2482 92.0938 88.693 91.9593 89.1126V89.109Z" fill="white"/>
<g opacity="0.72">
<path opacity="0.72" d="M90.5563 87.9858C90.5885 88.2693 90.53 88.5553 90.3875 88.8102C90.319 88.9362 90.2384 89.0568 90.1463 89.1702C90.096 89.2296 89.8327 89.5698 89.7564 89.5554C89.2378 89.4726 88.4961 89.1108 88.2569 88.6266C88.2211 88.5505 88.1962 88.4707 88.1825 88.389C88.164 88.2704 88.1862 88.1496 88.2456 88.0425C88.3051 87.9354 88.3994 87.8469 88.516 87.7884C88.6328 87.73 88.7662 87.7047 88.8995 87.7155C89.0326 87.7263 89.1588 87.7727 89.2619 87.849C89.3176 87.7271 89.4159 87.6247 89.5423 87.5574C89.6685 87.4899 89.8161 87.4613 89.9622 87.4755C90.1083 87.4897 90.2454 87.5461 90.3525 87.6363C90.4597 87.7264 90.5312 87.8452 90.5563 87.975V87.9858Z" fill="#6385DD"/>
</g>
<path d="M63.2871 101.441C63.0726 101.89 62.7066 102.268 62.2404 102.521C61.7741 102.775 61.231 102.891 60.6871 102.854C60.1432 102.817 59.6258 102.629 59.2076 102.315C58.7893 102.002 58.491 101.579 58.3545 101.106C58.2653 100.789 58.2482 100.459 58.3043 100.136C58.3889 99.6903 58.615 99.2759 58.9559 98.9426C59.2966 98.6094 59.7376 98.3711 60.2258 98.2566C60.6974 98.1446 61.1948 98.1542 61.6606 98.2841C62.1265 98.4139 62.5417 98.6591 62.8589 98.991C63.1821 99.3222 63.3938 99.7286 63.4696 100.163C63.5453 100.598 63.482 101.043 63.2871 101.446V101.441Z" fill="white"/>
<g opacity="0.72">
<path opacity="0.72" d="M61.9962 100.042C62.028 100.326 61.9687 100.612 61.8254 100.867C61.7589 100.994 61.6781 101.114 61.5842 101.227C61.534 101.286 61.2706 101.626 61.1963 101.612C60.6757 101.529 59.936 101.167 59.6968 100.681C59.66 100.606 59.6349 100.526 59.6224 100.444C59.604 100.325 59.6261 100.204 59.6856 100.097C59.7451 99.99 59.8393 99.9014 59.9559 99.8431C60.0727 99.7846 60.2064 99.7592 60.3394 99.77C60.4725 99.7808 60.5989 99.8275 60.7018 99.9036C60.7416 99.8165 60.8031 99.7385 60.8819 99.6761C60.9607 99.6136 61.0546 99.5683 61.1561 99.5436C61.2481 99.5243 61.3434 99.522 61.4365 99.5368C61.5293 99.5517 61.618 99.5835 61.6966 99.6302C61.7753 99.677 61.8425 99.7376 61.8941 99.8084C61.9456 99.8793 61.9804 99.9589 61.9962 100.042Z" fill="#6385DD"/>
</g>
<path d="M92.7498 99.144C92.5667 99.6827 92.1724 100.144 91.6391 100.443C91.1059 100.741 90.4701 100.857 89.849 100.768C89.2281 100.679 88.6639 100.392 88.2611 99.9596C87.8581 99.5274 87.6437 98.9789 87.6571 98.4161C87.6706 97.853 87.9112 97.3134 88.3343 96.8969C88.7576 96.4805 89.3349 96.2154 89.9596 96.1504C90.5843 96.0856 91.214 96.2255 91.7324 96.5441C92.2508 96.8627 92.623 97.3388 92.78 97.884C92.8988 98.2985 92.8883 98.7343 92.7498 99.144Z" fill="white"/>
<g opacity="0.72">
<path opacity="0.72" d="M91.3585 97.9992C91.3889 98.2829 91.3296 98.5685 91.1877 98.8236C91.1199 98.9501 91.0391 99.0706 90.9465 99.1836C90.8962 99.243 90.6329 99.5832 90.5585 99.5688C90.0379 99.486 89.2963 99.1242 89.0571 98.64C89.0211 98.5633 88.996 98.4829 88.9827 98.4006C88.9642 98.2822 88.9861 98.1614 89.0456 98.0541C89.1051 97.947 89.1994 97.8584 89.3162 97.7999C89.4327 97.7416 89.5664 97.7162 89.6995 97.727C89.8325 97.7378 89.959 97.7845 90.0621 97.8606C90.1183 97.7391 90.2172 97.6372 90.3437 97.5703C90.4703 97.5033 90.6176 97.4749 90.7638 97.4893C90.9097 97.5037 91.0468 97.5602 91.1539 97.6502C91.2612 97.7402 91.333 97.8588 91.3585 97.9884V97.9992Z" fill="#6385DD"/>
</g>
<path d="M87.3568 105.442C85.6141 105.529 83.7388 103.282 83.166 102.722C83.1024 102.663 83.0301 102.611 82.9509 102.569L81.3932 101.441L81.6544 103.216C82.0705 104.071 84.2674 105.935 85.8332 108.076C87.399 110.216 85.9076 110.684 85.0694 110.956C84.2313 111.227 83.3549 109.809 83.6966 111.35C84.0383 112.891 82.0082 112.912 80.7419 112.72C79.4756 112.527 79.0214 111.28 79.3088 112.259C79.5962 113.238 78.6475 113.953 77.7912 113.985C77.142 114.014 75.8938 113.229 75.331 112.851C75.2024 113.47 74.738 114.633 73.12 114.014C70.9713 113.191 68.8849 108.275 67.291 103.244C65.6971 98.2134 55.3737 89.037 53.8682 79.3206C53.8682 79.3044 53.8682 79.281 53.8682 79.2648C53.7878 78.5304 53.7468 77.7906 53.7456 77.0454C53.746 75.629 53.8994 74.216 54.2039 72.8262C54.4214 71.815 54.7122 70.8174 55.0742 69.84L72.119 72.8712C72.0024 72.9864 71.8859 73.1016 71.7693 73.2222C67.7794 77.3712 70.111 82.6326 73.1461 86.4954C76.2254 90.4266 79.7691 94.311 83.8192 97.4754C85.0083 98.4022 86.1195 99.4064 87.1438 100.48L86.9227 100.589C87.163 101.009 87.4316 101.415 87.7267 101.806C88.9306 103.293 89.1075 105.354 87.3568 105.442Z" fill="white"/>
<path d="M76.501 69.9966L115.425 59.8464C117.295 59.3642 119.302 59.5647 121.007 60.4039C122.713 61.243 123.978 62.6526 124.526 64.3248L132.886 90.0414C133.424 91.7158 133.201 93.5129 132.265 95.0406C131.33 96.5684 129.757 97.7024 127.891 98.1954L86.4083 109.01" stroke="black" stroke-width="4.57" stroke-miterlimit="10"/>
<path d="M71.2428 112.961L59.8361 115.938C57.966 116.421 55.9584 116.221 54.2527 115.382C52.547 114.542 51.2821 113.132 50.7348 111.46L42.3752 85.743C41.8359 84.0695 42.0584 82.273 42.9941 80.7462C43.9298 79.2193 45.5022 78.086 47.3681 77.5944L47.6675 77.517L47.9188 77.4504L53.2493 76.059" stroke="black" stroke-width="4.57" stroke-miterlimit="10"/>
<path d="M82.4487 110.039H82.4421" stroke="black" stroke-width="4.57" stroke-miterlimit="10"/>
<path d="M74.4566 112.127H74.45" stroke="black" stroke-width="4.57" stroke-miterlimit="10"/>
<path d="M76.625 102.269C77.1858 105.008 79.7345 107.977 82.4379 110.032C83.2238 110.63 84.9605 111.357 85.9032 110.675C87.9373 109.206 84.46 106.787 83.5012 105.815C82.3374 104.634 81.3967 103.25 81.047 101.689C81.0167 101.593 81.0229 101.49 81.0651 101.398C81.1059 101.347 81.1638 101.31 81.2301 101.292C81.2965 101.273 81.3676 101.274 81.4329 101.295C81.5628 101.338 81.6796 101.407 81.7746 101.497C82.8761 102.397 83.859 103.392 84.856 104.377C85.5615 105.08 87.3966 105.953 88.2971 105.057C90.2508 103.111 84.7213 98.577 83.3063 97.4646C79.2601 94.2966 75.7105 90.4122 72.6311 86.4846C69.596 82.6218 67.2644 77.3604 71.2543 73.2114C73.3367 71.0514 76.42 70.1082 79.1737 68.832C83.6158 66.78 84.5303 63.36 84.5303 63.36" stroke="black" stroke-width="4.57" stroke-miterlimit="10"/>
<path d="M74.0442 105.053C74.0442 105.053 76.3436 110.923 81.2279 112.75C81.518 112.866 81.8333 112.921 82.1507 112.913C82.4679 112.904 82.779 112.832 83.061 112.702C83.664 112.399 84.1565 111.802 83.3103 110.603" stroke="black" stroke-width="4.57" stroke-miterlimit="10"/>
<path d="M70.8604 106.425C71.7568 108.603 72.9467 110.88 74.8603 112.5C75.7326 113.236 76.8381 113.965 78.0763 114.012C79.5677 114.068 79.6843 112.721 79.0813 111.805C78.951 111.609 78.7942 111.428 78.6149 111.265" stroke="black" stroke-width="4.57" stroke-miterlimit="10"/>
<path d="M74.86 112.5C74.86 112.5 74.7515 114.84 72.6028 114.014C70.4541 113.188 68.3617 108.274 66.7738 103.241C65.1859 98.208 54.8043 89.0046 53.3309 79.2648L53.347 79.3836C53.347 79.362 53.347 79.3458 53.347 79.3242C53.096 77.155 53.2071 74.9642 53.6766 72.8244C58.3298 51.7356 89.7019 48.9456 89.7019 48.9456" stroke="black" stroke-width="4.57" stroke-miterlimit="10"/>
<path d="M136.184 93.483C135.315 95.778 133.169 97.2414 130.523 97.5978C129.39 97.7472 128.168 97.884 127.106 97.4178C126.329 97.0776 125.563 96.2838 125.796 95.4504C125.45 95.4544 125.105 95.4193 124.769 95.346C124.308 95.247 123.832 95.0508 123.629 94.671C123.426 94.2912 123.569 93.762 123.898 93.4218C124.258 93.1047 124.7 92.8732 125.185 92.7486C125.303 92.7097 125.423 92.6766 125.545 92.6496C125.152 92.6527 124.76 92.6303 124.371 92.583C123.623 92.4966 122.785 92.2104 122.562 91.5696C122.5 91.3518 122.5 91.1236 122.564 90.9061C122.627 90.6885 122.751 90.4889 122.924 90.3258C123.275 90.0022 123.716 89.7675 124.202 89.6454C124.252 89.6346 124.294 89.6184 124.343 89.6076C123.456 89.5968 122.55 89.4384 122.158 88.686C122.032 88.4187 121.996 88.1241 122.055 87.8388C122.114 87.5535 122.265 87.2898 122.489 87.0804C123.273 86.292 124.447 86.1804 125.555 86.1048C126.662 86.0292 128.009 85.995 129.313 85.9734C129.597 85.9668 129.875 85.902 130.126 85.7844C130.377 85.6667 130.595 85.4991 130.763 85.2945C130.93 85.09 131.044 84.8536 131.094 84.6038C131.144 84.354 131.13 84.0973 131.052 83.853C130.543 82.233 130.328 80.4654 131.4 80.0334C132.998 79.3854 134.099 81.1512 134.557 82.2366C135.958 85.563 137.518 89.9694 136.184 93.483Z" fill="white"/>
<path d="M129.444 92.1456C128.152 92.3922 126.843 92.6442 125.533 92.655C125.411 92.6822 125.291 92.7153 125.173 92.754C124.688 92.8786 124.246 93.1099 123.886 93.4272C123.557 93.7674 123.398 94.2714 123.617 94.6764C123.836 95.0814 124.296 95.2524 124.757 95.3514C125.093 95.4245 125.438 95.4596 125.784 95.4558C126.491 95.4428 127.195 95.3638 127.884 95.22C128.001 95.1984 129.428 95.0508 129.538 95.0274" stroke="black" stroke-width="4.57" stroke-miterlimit="10"/>
<path d="M124.329 89.613C124.28 89.6238 124.238 89.64 124.188 89.6508C123.702 89.7727 123.261 90.0074 122.909 90.3312C122.737 90.4943 122.613 90.6937 122.55 90.9113C122.486 91.1288 122.486 91.3572 122.548 91.575C122.781 92.2158 123.619 92.502 124.357 92.5884C124.746 92.6355 125.138 92.6579 125.531 92.655" stroke="black" stroke-width="4.57" stroke-miterlimit="10"/>
<path d="M130.529 89.4924C130.431 89.4924 130.338 89.4924 130.242 89.4924L125.571 89.586C125.205 89.586 124.767 89.6184 124.329 89.6076C123.442 89.5968 122.536 89.4384 122.144 88.686C122.018 88.4187 121.982 88.124 122.041 87.8387C122.1 87.5534 122.251 87.2897 122.475 87.0804C123.259 86.292 124.433 86.1804 125.541 86.1048C126.648 86.0292 127.997 85.9986 129.301 85.9734C129.586 85.9676 129.865 85.9034 130.117 85.786C130.369 85.6685 130.588 85.5006 130.757 85.2955C130.925 85.0903 131.039 84.8533 131.089 84.6025C131.139 84.3518 131.124 84.0942 131.046 83.8494C130.537 82.2294 130.318 80.46 131.392 80.028C132.99 79.38 134.091 81.1458 134.549 82.2312C135.956 85.5576 137.518 89.9712 136.184 93.4776C135.313 95.7726 133.169 97.2396 130.525 97.5924C129.394 97.7436 128.168 97.8804 127.108 97.4124C126.335 97.074 125.567 96.282 125.798 95.4486" stroke="black" stroke-width="4.57" stroke-miterlimit="10"/>
<g opacity="0.54">
<path opacity="0.54" d="M93.5112 80.0622C93.4761 79.8543 93.423 79.6491 93.3524 79.4484L92.5625 77.1606C92.3213 76.4604 92.054 75.7206 91.4389 75.2382C90.2993 74.3382 88.5425 74.6748 87.0853 75.0672L83.5095 76.0284C82.6874 76.2498 81.8532 76.4766 81.1357 76.896C80.4181 77.3154 79.8191 77.967 79.7066 78.7284C79.6221 79.29 79.8071 79.8516 79.99 80.3952L80.7256 82.5912C80.9688 83.3112 81.2382 84.0708 81.8713 84.5712C82.9989 85.4496 84.7215 85.1202 86.1567 84.7404L89.8148 83.7738C92.0218 83.1834 93.867 82.1268 93.5112 80.0622Z" fill="white"/>
<path opacity="0.54" d="M88.4939 80.3304C88.6416 80.1914 88.7451 80.0195 88.794 79.8329C88.8428 79.646 88.8354 79.4509 88.7721 79.2675C88.7088 79.0843 88.5922 78.9194 88.4342 78.7898C88.276 78.6602 88.0824 78.5707 87.8728 78.5304L86.7392 78.3L85.6075 78.0696C85.3993 78.0246 85.1814 78.0302 84.9764 78.0854C84.7714 78.1409 84.5864 78.2442 84.4407 78.3848C84.295 78.5254 84.1937 78.6982 84.1473 78.8854C84.1008 79.0727 84.1109 79.2677 84.1764 79.4502L84.5201 80.4438L84.8618 81.4374C84.9223 81.6217 85.0365 81.7882 85.1929 81.9198C85.349 82.0514 85.5416 82.1434 85.7506 82.186C85.9597 82.2287 86.1778 82.2208 86.3824 82.163C86.5868 82.105 86.7703 81.9994 86.914 81.8568L87.704 81.0936L88.4939 80.3304Z" fill="#6385DD"/>
</g>
<path d="M169.453 156.289H159.598" stroke="#CCDDE2" stroke-width="4.57" stroke-miterlimit="10"/>
<path d="M157.919 101.111C163.946 101.111 168.832 96.7363 168.832 91.3392C168.832 85.9423 163.946 81.567 157.919 81.567C151.893 81.567 147.007 85.9423 147.007 91.3392C147.007 96.7363 151.893 101.111 157.919 101.111Z" fill="#6385DD"/>
<path d="M156.153 95.7204C156.026 95.7204 155.9 95.6981 155.783 95.6545C155.666 95.611 155.559 95.5471 155.469 95.4666L152.655 92.9466C152.474 92.7844 152.372 92.5645 152.372 92.3351C152.372 92.1058 152.474 91.8857 152.654 91.7235C152.836 91.5611 153.081 91.4699 153.337 91.4697C153.593 91.4695 153.839 91.5604 154.02 91.7226L156.159 93.6378L161.825 88.56C162.006 88.3976 162.252 88.3064 162.508 88.3062C162.764 88.306 163.01 88.3969 163.191 88.5591C163.372 88.7211 163.474 88.9411 163.474 89.1704C163.475 89.3997 163.373 89.6198 163.192 89.7822L156.834 95.4756C156.652 95.6345 156.407 95.7226 156.153 95.7204Z" fill="white"/>
</svg>
