<svg width="408" height="722" viewBox="0 0 408 722" fill="none" xmlns="http://www.w3.org/2000/svg">
<rect width="408" height="722" fill="#F5F8D7"/>
<path d="M137.52 390.375V404.684C137.52 406.723 137.062 408.48 136.148 409.957C135.258 411.41 134.039 412.535 132.492 413.332C130.969 414.105 129.258 414.492 127.359 414.492C125.461 414.492 123.738 414.105 122.191 413.332C120.645 412.535 119.414 411.41 118.5 409.957C117.609 408.48 117.164 406.723 117.164 404.684V390.375H122.051V404.402C122.051 406.207 122.531 407.566 123.492 408.48C124.477 409.371 125.766 409.805 127.359 409.781C128.93 409.781 130.207 409.336 131.191 408.445C132.176 407.555 132.668 406.207 132.668 404.402V390.375H137.52ZM153.762 390.445C154.863 390.445 155.941 390.598 156.996 390.902C158.051 391.207 159 391.676 159.844 392.309C160.711 392.941 161.391 393.738 161.883 394.699C162.398 395.637 162.656 396.762 162.656 398.074C162.656 399.457 162.305 400.652 161.602 401.66C160.922 402.645 160.02 403.418 158.895 403.98C157.77 404.52 156.551 404.836 155.238 404.93L163.711 414H157.277L149.086 404.367V414H144.199V390.445H153.762ZM149.086 395.016V400.957C149.648 401.145 150.27 401.297 150.949 401.414C151.652 401.508 152.355 401.555 153.059 401.555C154.465 401.555 155.578 401.273 156.398 400.711C157.242 400.125 157.664 399.305 157.664 398.25C157.664 397.102 157.219 396.281 156.328 395.789C155.461 395.273 154.395 395.016 153.129 395.016H149.086ZM182.977 400.008V403.98H172.57V409.676H184.348V414H167.684V390.445H184.348V394.664H172.57V400.008H182.977ZM214.02 390.27V414H209.133V399.656L203.086 406.266H201.68L195.562 399.656V414H190.676V390.27H192.328L202.383 400.746L212.367 390.27H214.02ZM233.707 409.605V414H220.875V409.605H224.848V394.84H220.875V390.445H233.707V394.84H229.734V409.605H233.707ZM261.164 390.445V414.176H259.406L245.449 399.797V414H240.562V390.27H242.32L256.277 404.859V390.445H261.164ZM277.336 389.883C279.82 389.883 282 390.387 283.875 391.395C285.75 392.402 287.203 393.809 288.234 395.613C289.289 397.418 289.816 399.539 289.816 401.977C289.816 404.297 289.324 406.406 288.34 408.305C287.355 410.18 285.949 411.668 284.121 412.77C282.293 413.871 280.113 414.422 277.582 414.422C275.965 414.422 274.348 414.34 272.73 414.176C271.137 414.012 269.625 413.789 268.195 413.508V390.797C269.648 390.562 271.137 390.352 272.66 390.164C274.184 389.977 275.742 389.883 277.336 389.883ZM277.441 394.453C276.738 394.453 276 394.488 275.227 394.559C274.453 394.629 273.738 394.723 273.082 394.84V409.465C273.785 409.605 274.512 409.711 275.262 409.781C276.035 409.828 276.762 409.852 277.441 409.852C278.988 409.852 280.312 409.523 281.414 408.867C282.516 408.188 283.359 407.262 283.945 406.09C284.531 404.918 284.824 403.605 284.824 402.152C284.824 400.652 284.531 399.328 283.945 398.18C283.359 397.031 282.516 396.129 281.414 395.473C280.312 394.793 278.988 394.453 277.441 394.453Z" fill="#416498"/>
<g filter="url(#filter0_d_1_3)">
<path d="M244.333 263H162.667C159.572 263 156.605 264.15 154.417 266.197C152.229 268.245 151 271.021 151 273.917V350.333C151 353.229 152.229 356.005 154.417 358.053C156.605 360.1 159.572 361.25 162.667 361.25H209.333L256 317.583V273.917C256 271.021 254.771 268.245 252.583 266.197C250.395 264.15 247.428 263 244.333 263ZM203.5 350.333V312.125H244.333L203.5 350.333Z" fill="#415998"/>
</g>
<defs>
<filter id="filter0_d_1_3" x="147" y="263" width="113" height="106.25" filterUnits="userSpaceOnUse" color-interpolation-filters="sRGB">
<feFlood flood-opacity="0" result="BackgroundImageFix"/>
<feColorMatrix in="SourceAlpha" type="matrix" values="0 0 0 0 0 0 0 0 0 0 0 0 0 0 0 0 0 0 127 0" result="hardAlpha"/>
<feOffset dy="4"/>
<feGaussianBlur stdDeviation="2"/>
<feComposite in2="hardAlpha" operator="out"/>
<feColorMatrix type="matrix" values="0 0 0 0 0 0 0 0 0 0 0 0 0 0 0 0 0 0 0.25 0"/>
<feBlend mode="normal" in2="BackgroundImageFix" result="effect1_dropShadow_1_3"/>
<feBlend mode="normal" in="SourceGraphic" in2="effect1_dropShadow_1_3" result="shape"/>
</filter>
</defs>
</svg>
